# xmcd CD database file
#
# Track frame offsets:
#	150
#	17319
#	36384
#	50273
#	67270
#	86328
#	101575
#	114845
#	130388
#	144700
#	161483
#
# Disc length: 2317 seconds
#
# Revision: 0
# Processed by: cddbd v1.5.1PL0 Copyright (c) Steve Scherf et al.
# Submitted via: CDex 1.50beta9
#
DISCID=8e090b0b
DTITLE=Los Fugitivos - Mi Ultima Tentacion
DYEAR=1900
DGENRE=Country
TTITLE0=Flechazo
TTITLE1=La Mitad De La Noche
TTITLE2=Vampiro
TTITLE3=Hacia Un Amor De Verdad
TTITLE4=Jugaste Con El Amor
TTITLE5=Mi Ultima Tentacion
TTITLE6=Cuando Yo Te Toque
TTITLE7=Cuando Solo Seamos Dos
TTITLE8=Brindemos
TTITLE9=Si Me Quisieras
TTITLE10=Contra Mi Voluntad
EXTD=
EXTT0=
EXTT1=
EXTT2=
EXTT3=
EXTT4=
EXTT5=
EXTT6=
EXTT7=
EXTT8=
EXTT9=
EXTT10=
PLAYORDER=
